<?xml version="1.0" encoding="utf-8"?>
<!-- Generator: Adobe Illustrator 24.3.0, SVG Export Plug-In . SVG Version: 6.00 Build 0)  -->
<svg version="1.1" id="_.svg" xmlns="http://www.w3.org/2000/svg" xmlns:xlink="http://www.w3.org/1999/xlink" x="0px" y="0px"
	 viewBox="0 0 1769 2313.5" style="enable-background:new 0 0 1769 2313.5;" xml:space="preserve">
<style type="text/css">
	.st0{fill-rule:evenodd;clip-rule:evenodd;fill:#C46102;}
	.st1{fill-rule:evenodd;clip-rule:evenodd;fill:#3A1F1E;}
	.st2{fill-rule:evenodd;clip-rule:evenodd;fill:#F5B426;}
	.st3{fill-rule:evenodd;clip-rule:evenodd;fill:#DF9F19;}
	.st4{fill-rule:evenodd;clip-rule:evenodd;fill:#BBBBBB;}
	.st5{fill-rule:evenodd;clip-rule:evenodd;fill:#EAEAEA;}
	.st6{fill-rule:evenodd;clip-rule:evenodd;fill:#FFFFFF;}
	.st7{fill:#3A1F1E;}
	.st8{fill:#FFFFFF;}
</style>
<path id="形状_13" class="st0" d="M1146,170.5c0,0,167.7,30.1,320-139c0,0,69.7-76.9,126,20c0,0,49.7,109.1-152,286l-128,106
	c0,0,71.7,17.1,132,18s76.2-9.2,104,28s-8.1,98.5-61,117s-153.6,32.9-272,22s-68.3-30.7-70-32"/>
<path id="形状_14" class="st1" d="M1143,419.5h55c2.6,16.2,16.7,20.7,33,14c26-16.3,52-32.7,78-49c81.1-57.3,154.8-123.7,207-210
	c8.9-14.7,42-71.8,33-99c-6.1-18.3-34.1-24-47-8c-69.2,85.6-163,154.3-318,154c-13.3,13.3-26.7,26.7-40,40c0.3-31,0.7-62,1-93
	c140.1,7.7,229.7-48.6,299-118c26.4-26.4,70.4-73.9,120-37c50,37.2,38.7,113.3,11,166c-42.5,80.9-110.5,144.8-180,199
	c-26,21.3-52,42.7-78,64c31.6,4.6,65,10.6,99,16c60.4,9.6,99.3-15.1,131,27c6.6,8.8,15.8,21.3,13,39c-14.5,91.8-107.5,92.8-201,107
	c-24.4,3.7-59.1,6-85,2c-51.9-8-106.7,2-140-23v-6C1152.9,576.7,1143.3,466.4,1143,419.5z M1196,267.5v68c-17.7,25-35.3,50-53,75
	c0.3-47,0.7-94,1-141L1196,267.5z M1195,430.5v104c0,9.9-3.1,32.2,2,38c51.2,23.2,201,6.7,249-8c23-7,49-13.1,58-34
	c-1.5-30.6-56.3-17.7-86-19c-43.6-1.9-87.1-6.9-124-18c-12.7-4.7-25.3-9.3-38-14l-9,3c-10.6-3.9-6.2-28-3-36v-1
	C1211.6,451,1213.9,443.9,1195,430.5z"/>
<path id="形状_12" class="st2" d="M816,30.5c225.7-3.9,371.7,133.6,422,300c50.7,167.6-18.3,326.3-103,411
	c-21.8,21.8-46.3,42-81,65c-2.1,153.1,39.4,267.7,61,398c4.2,25.2,7.6,157.4-1,173c-44.1,17.8-85.9,52.6-138,61
	c-16.5,2.7-100.3-37.6-119-45c-49.8-19.7-92-39-135-64c-13.7-7-27.3-14-41-21c-17.2-12.1-29.6-41.9-41-60
	c-28.7-44.7-57.3-89.3-86-134c44.1-80.6,107.1-163.1,109-285c-41.1-17.6-78.1-41.8-107-68c-70.4-63.7-127.4-146.3-140-278
	c-4.5-47.3,1.7-59.5,2-88c-38.3-16-75.7-32-114-48h2l120-70l-2-1l-185-121l357-49l33-22c25.1-16.6,85.4-36.6,84-36s0.2,0,0.6-0.1
	c19-5.3,68.4-14.9,68.4-14.9S802.7,31.2,816,30.5z"/>
<path id="形状_17" class="st3" d="M1119,1333.5c-38.3,2.3-76.7,4.7-115,7c-5.7-14.7-11.3-29.3-17-44l-18-75
	c-19.5-93-16.1-241.8,1-335c6-32.6,5.1-65.3,14-95c25-2,40.1-0.5,60,5c3.3,9.7,6.7,19.3,10,29c0.7,19,1.3,38,2,57
	c5.3,38.7,10.7,77.3,16,116c14.7,70,29.3,140,44,210C1122.6,1247.1,1118.6,1291.3,1119,1333.5z"/>
<path id="形状_16" class="st1" d="M1006.8,815.1c-39.3,0.9-94.2,5.4-118.6-13.1c42.7,0.7,77.4-7.2,107.5-20.1
	c126.3-54,248.2-225.7,199-421.1c-17-67.5-47.2-115.4-84.4-161.8c-63.1-78.7-213.4-149.9-359.8-112.6c-31.5,8-64.8,18-90.4,33.2
	c-15.8,9.7-31.5,19.4-47.2,29.1l-231.1,32.2l2,1l130.6,89.4l-92.5,63.3l51.3,13.1c-3.5,44.9-19.4,96.5-10,148.7
	c26.1,145.1,116,267.4,250.2,302.5c0.4,115.4-34.7,215.8-78.4,290.4c-9,15.4-15.6,32.4-27.1,45.2c3.3,13.7,15.6,24,23.1,34.2
	c22.1,29.8,44.2,59.6,66.3,89.4c-28.5-16.1-56.9-32.2-85.4-48.2c-19.8-31.1-39.5-62.3-59.3-93.5c43-87.9,107.5-156.6,109.5-286.4
	c-121.2-54.9-205.7-149.9-240.2-291.4c-6.4-26.3-12.2-64.7-10-96.5c1.1-16.1,3-48.2,3-48.2l-112.6-47.2
	c40.2-23.4,80.4-47.9,120.6-71.3v-1L237,152.8l358.8-49.2L630,79.4l63.3-28.1c74.8-28.9,190.2-29.8,270.3-5
	c188.5,58.4,367.7,289.3,267.3,546.7c-36.4,93.3-96.1,164.1-175.9,214.1c-2.5,184.6,63.2,298.6,65.3,473.4
	c-17.1,9-34.2,18.1-51.2,27.1c4.9-91.5-21.7-167.2-40.2-240.2C1010.3,993.7,1006.9,905.3,1006.8,815.1z"/>
<path id="形状_6" class="st4" d="M42,1105.5c0,0-117.9,1025.2,838,1074c261.2,13.3,974.3-152.6,878-1108l-290,223l-270-200
	l-280,222l-392-237l-186,234L42,1105.5z"/>
<path id="形状_15" class="st5" d="M526,1079.5l392,237l280-222l270,200c17.3-13,34.7-26,52-39v1c-3.3,22.3-6.7,44.7-10,67
	c-10.8,49.5-20.8,99.4-38,144c-80.1,207.5-180.2,344.3-362,450c-69.3,40.3-155.5,62.8-245,82c-41.2,8.9-84.5,9.3-129,16h-83
	c-25.3-1.7-50.7-3.3-76-5c-45.5-7.8-89.3-15.7-129-28c-74-22.9-146.7-50.3-202-93c-7.7-10.3-15.3-20.7-23-31
	c-26.5-37.2-50.3-76.3-71-117c-84-165.2-125.6-385.7-110-636c75.3,52.3,150.7,104.7,226,157c13.6,9.2,66.5,52.8,76,47L526,1079.5z"
	/>
<path id="形状_3" class="st6" d="M43,1105.5c35,24.7,70,49.3,105,74c-2.6,229.7,33.8,427,99,595l52,130c11,23.3,22,46.7,33,70h-1
	c-123.5-94.5-217.4-272.2-262-447c-14.2-55.5-17.8-114.5-28-176C28,1273.2,41.3,1182.1,43,1105.5z"/>
<path id="形状_8" class="st1" d="M1756,1069.5c1.3,0.3,2.7,0.7,4,1c3,45.3,6,90.7,9,136c-0.3,23-0.7,46-1,69c-1,26.3-2,52.7-3,79
	c-10.1,60.9-14.2,120.2-28,174c-78.1,305.2-252.7,491.6-528,599c-56,21.8-117.3,32.9-182,46c-118.7,23.9-279.8,2.2-377-27
	c-307.4-92.5-472.6-270.1-566-576c-28.7-94.1-48-205.1-48-325c0-44.6-7.2-102.7,5-142h1c99,69,198,138,297,207c1-0.7,2-1.3,3-2
	c61.3-77,122.7-154,184-231c130.7,78.7,261.3,157.3,392,236c93-73.7,186-147.3,279-221c90.3,66.3,180.7,132.7,271,199l2-2
	C1565.3,1216.2,1660.7,1142.9,1756,1069.5z M1714,1174.5c20.2,454.3-167.4,744.6-479,879c-150.1,64.7-334.7,99.1-527,50
	c-80.8-20.6-157.6-45.2-222-83c-53.1-31.1-121.7-72.6-159-119c-29.5-36.7-60.5-72.2-86-113c-89.2-142.6-156.7-350.9-153-583
	c75.3,52.7,255,180,255,180l21-22c0,0,83.1-96.5,115-138l58-73c89.3,53.3,178.7,106.7,268,160c43.2,27,115,62,115,62
	s191-140.7,275-207l4-4c70.7,52.7,277,194,277,194"/>
<ellipse id="椭圆_1" class="st7" cx="911" cy="296" rx="131" ry="119.5"/>
<ellipse id="椭圆_2" class="st8" cx="865.5" cy="351" rx="25.5" ry="21.5"/>
<path id="椭圆_2_拷贝" class="st6" d="M925.7,232.1c29.5,0,53.5,22.2,53.5,49.6s-24,49.6-53.5,49.6s-53.5-22.2-53.5-49.6
	S896.1,232.1,925.7,232.1z"/>
</svg>
