<svg id="_.svg_拷贝" data-name=".svg 拷贝" xmlns="http://www.w3.org/2000/svg" width="1360.62" height="871.341" viewBox="0 0 1360.62 871.341">
  <defs>
    <style>
      .cls-1 {
        fill: #c46102;
      }

      .cls-1, .cls-2, .cls-3, .cls-6 {
        fill-rule: evenodd;
      }

      .cls-2, .cls-4 {
        fill: #3a1f1e;
      }

      .cls-3 {
        fill: #f5b426;
      }

      .cls-5, .cls-6 {
        fill: #fff;
      }
    </style>
  </defs>
  <path id="形状_13" data-name="形状 13" class="cls-1" d="M1531,331s167.72,30.122,320-139c0,0,69.72-76.878,126,20,0,0,49.72,109.122-152,286L1697,604s71.72,17.122,132,18,76.22-9.193,104,28-8.11,98.473-61,117-153.63,32.935-272,22-68.29-30.732-70-32" transform="translate(-623 -160.469)"/>
  <path id="形状_14" data-name="形状 14" class="cls-2" d="M1528,580h55c2.6,16.211,16.69,20.749,33,14q39-24.5,78-49c81.06-57.268,154.79-123.729,207-210,8.89-14.7,42-71.826,33-99-6.05-18.277-34.06-24.007-47-8-69.21,85.618-163,154.316-318,154q-19.995,20-40,40,0.495-46.5,1-93c140.06,7.691,229.66-48.646,299-118,26.44-26.443,70.42-73.926,120-37,50,37.237,38.68,113.329,11,166-42.52,80.915-110.47,144.849-180,199q-39,32-78,64c31.56,4.632,64.99,10.616,99,16,60.38,9.56,99.33-15.114,131,27,6.61,8.79,15.79,21.306,13,39-14.48,91.817-107.22,94.838-201,107-26.61,3.451-58.83,3.016-85,2-51.57-2-106.72,1.955-140-23v-6C1537.89,737.192,1528.26,626.857,1528,580Zm53-152v68q-26.49,37.5-53,75,0.495-70.492,1-141Zm-1,163V695c0,9.86-3.09,32.186,2,38,51.2,23.219,201,6.7,249-8,23-7.044,49-13.068,58-34-1.48-30.647-56.28-17.684-86-19-43.63-1.931-87.13-6.946-124-18q-19.005-7-38-14l-9,3c-10.57-3.892-6.19-27.982-3-36v-1C1596.57,611.439,1598.92,604.33,1580,591Z" transform="translate(-623 -160.469)"/>
  <path id="形状_18" data-name="形状 18" class="cls-3" d="M1191.19,191c218.22-3.019,351.01,104.057,415.66,255.18,73.78,172.493,9.85,380.257-99.89,467.834-48.6,38.788-98.02,73.934-165.45,94.386-220.28,66.8-406.42-62-485.72-194.778-27.943-46.787-41.674-101.177-52.661-165.9-5.108-30.093,6.925-68.406.342-93.452L692.052,507.234l118.556-69.478c0-.332,0-0.665-0.007-1l-184.55-120.92,354.694-48.713q16.889-12,33.785-24.017c23.86-14.749,55.31-26.319,83.72-35.058l63.94-14.04Z" transform="translate(-623 -160.469)"/>
  <path id="形状_19" data-name="形状 19" class="cls-2" d="M1197,189c218.76-2.935,354.42,113.32,418,264,70.45,166.96-5.02,372.134-104,464-51.11,47.439-95.97,76.6-175,99-117.48,33.3-220.68,9.54-298-30C903.831,917.388,824.421,817.172,797,641c-4.517-29.023,3-87,3-87l-83-35c-8.561-3.7-33-12-33-12s84.671-45,124-68l-2-3L623,316c119.655-16.332,239.345-35.668,359-52,10.666-8,32-22,32-22s26.45-15.535,52-25c5-2,10.01-4.9,30-11,24.8-6.466,39.87-9.867,64-14Zm-2,48c-11.33,1.333-8.67.267-34,4-24.14,3.557-56.6,14-75,20s-42.83,19.053-62,31q-14,9-28,18c-75.992,10.332-152.008,23.668-228,34,41.663,28.664,125,83,125,83s-60.259,42.059-85,68v1l50,12q-5.5,29-11,58c-6.43,35.28-2.874,82,4,113,41.337,186.431,232.61,361.21,479,284,46.67-14.623,88.88-38.074,124-65,112.7-86.411,178.47-272.184,103-444C1499.88,323.962,1383.32,236.486,1195,237Z" transform="translate(-623 -160.469)"/>
  <ellipse id="椭圆_1" data-name="椭圆 1" class="cls-4" cx="673" cy="296.031" rx="131" ry="119.5"/>
  <ellipse id="椭圆_2" data-name="椭圆 2" class="cls-5" cx="627.5" cy="351.031" rx="25.5" ry="21.5"/>
  <path id="椭圆_2_拷贝" data-name="椭圆 2 拷贝" class="cls-6" d="M1310.67,392.531c29.54,0,53.5,22.192,53.5,49.568s-23.96,49.568-53.5,49.568-53.5-22.193-53.5-49.568S1281.12,392.531,1310.67,392.531Z" transform="translate(-623 -160.469)"/>
</svg>
